<mxfile host="65bd71144e">
    <diagram id="UugRDADlnEAdyAznKPOx" name="Page-1">
        <mxGraphModel dx="1040" dy="536" grid="1" gridSize="10" guides="1" tooltips="1" connect="1" arrows="1" fold="1" page="1" pageScale="1" pageWidth="827" pageHeight="1169" math="0" shadow="0">
            <root>
                <mxCell id="0"/>
                <mxCell id="1" parent="0"/>
                <mxCell id="9" style="edgeStyle=none;html=1;fontSize=13;fontColor=#000000;strokeWidth=2;" edge="1" parent="1" source="2">
                    <mxGeometry relative="1" as="geometry">
                        <mxPoint x="360" y="810" as="targetPoint"/>
                    </mxGeometry>
                </mxCell>
                <mxCell id="10" style="edgeStyle=none;html=1;fontSize=13;fontColor=#000000;strokeWidth=2;" edge="1" parent="1" source="2">
                    <mxGeometry relative="1" as="geometry">
                        <mxPoint x="520" y="810" as="targetPoint"/>
                    </mxGeometry>
                </mxCell>
                <mxCell id="11" style="edgeStyle=none;html=1;fontSize=13;fontColor=#000000;strokeWidth=2;" edge="1" parent="1" source="2">
                    <mxGeometry relative="1" as="geometry">
                        <mxPoint x="200" y="810" as="targetPoint"/>
                    </mxGeometry>
                </mxCell>
                <mxCell id="12" style="edgeStyle=none;html=1;fontSize=13;fontColor=#000000;strokeWidth=2;" edge="1" parent="1" source="2">
                    <mxGeometry relative="1" as="geometry">
                        <mxPoint x="670" y="810" as="targetPoint"/>
                    </mxGeometry>
                </mxCell>
                <mxCell id="2" value="&amp;lt;App /&amp;gt;" style="rounded=1;whiteSpace=wrap;html=1;fontStyle=1;fillColor=#F7F7F7;fontColor=#000000;fontSize=17;" vertex="1" parent="1">
                    <mxGeometry x="390" y="670" width="120" height="60" as="geometry"/>
                </mxCell>
                <mxCell id="3" value="&amp;lt;Header /&amp;gt;" style="rounded=1;whiteSpace=wrap;html=1;fontStyle=1;fillColor=#FF3333;fontSize=13;" vertex="1" parent="1">
                    <mxGeometry x="140" y="816" width="120" height="60" as="geometry"/>
                </mxCell>
                <mxCell id="13" style="edgeStyle=none;html=1;entryX=0.5;entryY=0;entryDx=0;entryDy=0;strokeWidth=2;fontSize=13;fontColor=#000000;" edge="1" parent="1" source="4" target="7">
                    <mxGeometry relative="1" as="geometry"/>
                </mxCell>
                <mxCell id="4" value="&amp;lt;Flashcards /&amp;gt;" style="rounded=1;whiteSpace=wrap;html=1;fontStyle=1;fillColor=#0D9EFF;fontSize=13;" vertex="1" parent="1">
                    <mxGeometry x="450" y="816" width="120" height="60" as="geometry"/>
                </mxCell>
                <mxCell id="5" value="&amp;lt;Form /&amp;gt;" style="rounded=1;whiteSpace=wrap;html=1;fontStyle=1;fillColor=#9933FF;fontSize=13;" vertex="1" parent="1">
                    <mxGeometry x="290" y="816" width="120" height="60" as="geometry"/>
                </mxCell>
                <mxCell id="6" value="&amp;lt;Footer /&amp;gt;" style="rounded=1;whiteSpace=wrap;html=1;fontStyle=1;fillColor=#FF8000;fontSize=13;" vertex="1" parent="1">
                    <mxGeometry x="610" y="816" width="120" height="60" as="geometry"/>
                </mxCell>
                <mxCell id="7" value="&amp;lt;Flashcard /&amp;gt;" style="rounded=1;whiteSpace=wrap;html=1;fontStyle=1;fillColor=#006600;fontSize=13;" vertex="1" parent="1">
                    <mxGeometry x="450" y="940" width="120" height="60" as="geometry"/>
                </mxCell>
                <mxCell id="14" value="" style="whiteSpace=wrap;html=1;aspect=fixed;strokeColor=#9933FF;fontSize=13;fontColor=#000000;fillColor=#FFFFFF;" vertex="1" parent="1">
                    <mxGeometry x="170" y="44.5" width="540" height="540" as="geometry"/>
                </mxCell>
                <mxCell id="16" value="" style="rounded=1;whiteSpace=wrap;html=1;strokeColor=#9933FF;fontSize=13;fontColor=#000000;fillColor=#FF3333;" vertex="1" parent="1">
                    <mxGeometry x="200" y="74.5" width="480" height="100" as="geometry"/>
                </mxCell>
                <mxCell id="17" value="" style="rounded=1;whiteSpace=wrap;html=1;strokeColor=#9933FF;fontSize=13;fontColor=#000000;fillColor=#9933FF;" vertex="1" parent="1">
                    <mxGeometry x="200" y="194.5" width="480" height="40" as="geometry"/>
                </mxCell>
                <mxCell id="19" value="" style="rounded=1;whiteSpace=wrap;html=1;strokeColor=#9933FF;fontSize=13;fontColor=#000000;fillColor=#0D9EFF;" vertex="1" parent="1">
                    <mxGeometry x="200" y="254.5" width="480" height="210" as="geometry"/>
                </mxCell>
                <mxCell id="20" value="" style="rounded=1;whiteSpace=wrap;html=1;strokeColor=#9933FF;fontSize=13;fontColor=#000000;fillColor=#006600;" vertex="1" parent="1">
                    <mxGeometry x="217" y="269.5" width="140" height="180" as="geometry"/>
                </mxCell>
                <mxCell id="24" value="" style="edgeStyle=none;html=1;strokeWidth=2;fontSize=13;fontColor=#000000;" edge="1" parent="1" source="23">
                    <mxGeometry relative="1" as="geometry">
                        <mxPoint x="440" y="444.5" as="targetPoint"/>
                    </mxGeometry>
                </mxCell>
                <mxCell id="23" value="" style="rounded=1;whiteSpace=wrap;html=1;strokeColor=#9933FF;fontSize=13;fontColor=#000000;fillColor=#FF8000;" vertex="1" parent="1">
                    <mxGeometry x="200" y="484.5" width="480" height="60" as="geometry"/>
                </mxCell>
                <mxCell id="25" value="" style="rounded=1;whiteSpace=wrap;html=1;strokeColor=#9933FF;fontSize=13;fontColor=#000000;fillColor=#006600;" vertex="1" parent="1">
                    <mxGeometry x="527" y="269.5" width="140" height="180" as="geometry"/>
                </mxCell>
                <mxCell id="26" value="" style="rounded=1;whiteSpace=wrap;html=1;strokeColor=#9933FF;fontSize=13;fontColor=#000000;fillColor=#006600;" vertex="1" parent="1">
                    <mxGeometry x="374" y="269.5" width="140" height="180" as="geometry"/>
                </mxCell>
            </root>
        </mxGraphModel>
    </diagram>
</mxfile>